<?xml version="1.0" encoding="UTF-8"?>
<svg id="Layer_1" data-name="Layer 1" xmlns="http://www.w3.org/2000/svg" viewBox="0 0 600 200">
  <path d="M86.12,106.6c-.93-1.84-2.17-3.35-3.72-4.52-1.55-1.17-3.32-2.11-5.32-2.8s-4.07-1.29-6.2-1.8-4.23-.99-6.28-1.44c-2.05-.45-3.93-1.04-5.64-1.76-1.71-.72-3.15-1.64-4.32-2.76-1.17-1.12-1.92-2.61-2.24-4.48-.27-1.49-.19-2.99.24-4.48s1.2-2.85,2.32-4.08,2.63-2.23,4.52-3c1.89-.77,4.23-1.16,7-1.16,1.81,0,3.57.24,5.28.72,1.71.48,3.23,1.23,4.56,2.24s2.39,2.32,3.16,3.92c.77,1.6,1.16,3.49,1.16,5.68h5.2c0-2.35-.4-4.56-1.2-6.64s-2-3.91-3.6-5.48c-1.6-1.57-3.61-2.81-6.04-3.72-2.43-.91-5.27-1.36-8.52-1.36s-6.03.43-8.48,1.28c-2.45.85-4.49,2-6.12,3.44s-2.85,3.09-3.68,4.96-1.24,3.79-1.24,5.76c0,2.83.51,5.16,1.52,7,1.01,1.84,2.33,3.35,3.96,4.52,1.63,1.17,3.49,2.11,5.6,2.8,2.11.69,4.27,1.29,6.48,1.8,2.21.51,4.37,1.03,6.48,1.56,2.11.53,3.97,1.24,5.6,2.12s2.95,2.01,3.96,3.4c1.01,1.39,1.52,3.2,1.52,5.44,0,1.6-.28,3.12-.84,4.56s-1.43,2.71-2.6,3.8c-1.17,1.09-2.69,1.96-4.56,2.6-1.82.62-3.97.94-6.45.96l2.58,4.47c4.9-.46,8.83-1.87,11.79-4.23,3.68-2.93,5.52-7.07,5.52-12.4,0-2.77-.47-5.08-1.4-6.92Z"/>
  <path d="M113.28,129.92c-2.67-.05-5.16-.53-7.48-1.44-2.32-.91-4.35-2.27-6.08-4.08-1.73-1.81-3.11-4.08-4.12-6.8-1.01-2.72-1.52-5.89-1.52-9.52,0-3.04.4-5.88,1.2-8.52.8-2.64,2-4.95,3.6-6.92,1.6-1.97,3.6-3.53,6-4.68,2.4-1.15,5.2-1.72,8.4-1.72s6.08.57,8.48,1.72c2.4,1.15,4.4,2.69,6,4.64,1.6,1.95,2.79,4.25,3.56,6.92.77,2.67,1.16,5.52,1.16,8.56,0,3.31-.45,6.29-1.36,8.96-.91,2.67-2.2,4.96-3.88,6.88-1.68,1.92-3.71,3.4-6.08,4.44-2.37,1.04-5,1.56-7.88,1.56ZM127.36,108.08c0-2.45-.27-4.75-.8-6.88-.53-2.13-1.36-3.99-2.48-5.56-1.12-1.57-2.56-2.81-4.32-3.72-1.76-.91-3.92-1.36-6.48-1.36s-4.65.49-6.44,1.48c-1.79.99-3.24,2.29-4.36,3.92-1.12,1.63-1.95,3.49-2.48,5.6-.53,2.11-.8,4.28-.8,6.52,0,2.56.31,4.92.92,7.08.61,2.16,1.51,4.01,2.68,5.56,1.17,1.55,2.64,2.75,4.4,3.6,1.76.85,3.79,1.28,6.08,1.28,2.51,0,4.65-.49,6.44-1.48,1.79-.99,3.24-2.31,4.36-3.96s1.95-3.52,2.48-5.6c.53-2.08.8-4.24.8-6.48Z"/>
  <path d="M146.32,128.8h-4.8v-41.44h4.8v7.76h.16c1.33-3.31,3.05-5.61,5.16-6.92,2.11-1.31,4.89-1.96,8.36-1.96v5.2c-2.72-.05-4.96.37-6.72,1.28-1.76.91-3.16,2.13-4.2,3.68-1.04,1.55-1.76,3.37-2.16,5.48-.4,2.11-.6,4.31-.6,6.6v20.32Z"/>
  <path d="M184.4,129.92c-2.67-.05-5.16-.53-7.48-1.44-2.32-.91-4.35-2.27-6.08-4.08-1.73-1.81-3.11-4.08-4.12-6.8-1.01-2.72-1.52-5.89-1.52-9.52,0-3.04.4-5.88,1.2-8.52.8-2.64,2-4.95,3.6-6.92,1.6-1.97,3.6-3.53,6-4.68,2.4-1.15,5.2-1.72,8.4-1.72s6.08.57,8.48,1.72c2.4,1.15,4.4,2.69,6,4.64,1.6,1.95,2.79,4.25,3.56,6.92.77,2.67,1.16,5.52,1.16,8.56,0,3.31-.45,6.29-1.36,8.96-.91,2.67-2.2,4.96-3.88,6.88-1.68,1.92-3.71,3.4-6.08,4.44-2.37,1.04-5,1.56-7.88,1.56ZM198.48,108.08c0-2.45-.27-4.75-.8-6.88-.53-2.13-1.36-3.99-2.48-5.56-1.12-1.57-2.56-2.81-4.32-3.72-1.76-.91-3.92-1.36-6.48-1.36s-4.65.49-6.44,1.48c-1.79.99-3.24,2.29-4.36,3.92-1.12,1.63-1.95,3.49-2.48,5.6-.53,2.11-.8,4.28-.8,6.52,0,2.56.31,4.92.92,7.08.61,2.16,1.51,4.01,2.68,5.56,1.17,1.55,2.64,2.75,4.4,3.6,1.76.85,3.79,1.28,6.08,1.28,2.51,0,4.65-.49,6.44-1.48,1.79-.99,3.24-2.31,4.36-3.96s1.95-3.52,2.48-5.6c.53-2.08.8-4.24.8-6.48Z"/>
  <path d="M217.76,128.8h-4.8v-57.6h4.8v22.8c1.55-2.56,3.67-4.49,6.36-5.8,2.69-1.31,5.51-1.96,8.44-1.96,3.15,0,5.88.6,8.2,1.8,2.32,1.2,4.24,2.8,5.76,4.8s2.65,4.33,3.4,7c.75,2.67,1.12,5.44,1.12,8.32,0,3.04-.35,5.89-1.04,8.56-.69,2.67-1.8,4.97-3.32,6.92-1.52,1.95-3.45,3.48-5.8,4.6-2.35,1.12-5.2,1.68-8.56,1.68-1.33,0-2.69-.19-4.08-.56-1.39-.37-2.73-.91-4.04-1.6-1.31-.69-2.51-1.56-3.6-2.6-1.09-1.04-1.99-2.25-2.68-3.64h-.16v7.28ZM217.76,107.92c0,2.51.31,4.84.92,7,.61,2.16,1.51,4.03,2.68,5.6,1.17,1.57,2.64,2.81,4.4,3.72,1.76.91,3.76,1.36,6,1.36,2.03,0,3.89-.36,5.6-1.08,1.71-.72,3.2-1.77,4.48-3.16,1.28-1.39,2.28-3.08,3-5.08.72-2,1.08-4.31,1.08-6.92.11-2.61-.11-5.05-.64-7.32-.53-2.27-1.39-4.25-2.56-5.96-1.17-1.71-2.68-3.05-4.52-4.04-1.84-.99-3.99-1.48-6.44-1.48-2.19,0-4.15.47-5.88,1.4-1.73.93-3.2,2.19-4.4,3.76-1.2,1.57-2.12,3.41-2.76,5.52-.64,2.11-.96,4.33-.96,6.68Z"/>
  <path d="M280.32,104.64c.91-.11,1.99-.27,3.24-.48,1.25-.21,2.28-.51,3.08-.88.8-.37,1.29-1,1.48-1.88.19-.88.28-1.69.28-2.44,0-2.45-.79-4.47-2.36-6.04-1.57-1.57-4.23-2.36-7.96-2.36-1.65,0-3.17.15-4.56.44-1.39.29-2.6.8-3.64,1.52-1.04.72-1.89,1.68-2.56,2.88-.67,1.2-1.11,2.71-1.32,4.52h-4.88c.16-2.45.72-4.55,1.68-6.28.96-1.73,2.2-3.15,3.72-4.24,1.52-1.09,3.28-1.89,5.28-2.4,2-.51,4.12-.76,6.36-.76,2.08,0,4.04.23,5.88.68,1.84.45,3.44,1.17,4.8,2.16,1.36.99,2.43,2.31,3.2,3.96.77,1.65,1.16,3.68,1.16,6.08v22.56c0,1.87.33,3.05,1,3.56.67.51,2.01.39,4.04-.36v3.76c-.37.11-.92.27-1.64.48-.72.21-1.43.32-2.12.32-.75,0-1.47-.08-2.16-.24-.8-.11-1.44-.36-1.92-.76-.48-.4-.87-.88-1.16-1.44-.29-.56-.49-1.17-.6-1.84-.11-.67-.16-1.37-.16-2.12-2.03,2.24-4.35,3.95-6.96,5.12-2.61,1.17-5.44,1.76-8.48,1.76-1.81,0-3.56-.24-5.24-.72-1.68-.48-3.16-1.23-4.44-2.24-1.28-1.01-2.29-2.25-3.04-3.72-.75-1.47-1.12-3.21-1.12-5.24,0-7.04,4.83-11.2,14.48-12.48l6.64-.88ZM288.4,107.04c-2.03.85-4.08,1.41-6.16,1.68-2.08.27-4.16.48-6.24.64-3.68.27-6.55,1.09-8.6,2.48-2.05,1.39-3.08,3.49-3.08,6.32,0,1.28.25,2.39.76,3.32.51.93,1.17,1.71,2,2.32.83.61,1.79,1.07,2.88,1.36,1.09.29,2.2.44,3.32.44,1.92,0,3.79-.24,5.6-.72,1.81-.48,3.43-1.21,4.84-2.2,1.41-.99,2.55-2.24,3.4-3.76.85-1.52,1.28-3.32,1.28-5.4v-6.48Z"/>
  <path d="M310.56,128.8h-4.8v-41.44h4.8v5.76c1.92-2.03,3.91-3.68,5.96-4.96,2.05-1.28,4.52-1.92,7.4-1.92,2.56,0,4.93.44,7.12,1.32,2.19.88,4.03,2.41,5.52,4.6,1.01,1.49,1.61,3.03,1.8,4.6.19,1.57.28,3.21.28,4.92v27.12h-4.8v-27.04c0-3.73-.83-6.53-2.48-8.4-1.65-1.87-4.4-2.8-8.24-2.8-1.49,0-2.85.23-4.08.68-1.23.45-2.33,1.05-3.32,1.8-.99.75-1.83,1.6-2.52,2.56-.7.96-1.23,1.97-1.6,3.04-.48,1.33-.77,2.61-.88,3.84-.11,1.23-.16,2.56-.16,4v22.32Z"/>
  <path d="M396.72,71.2h-6.16l-15.85,40.32,3.22,5.56,2.39-6.36h26.24l6.64,18.08h5.6l-22.08-57.6ZM382.16,106.08l11.28-30.24,11.28,30.24h-22.56Z"/>
  <path d="M431.2,145.12h-4.8v-57.76h4.8v7.28h.16c.69-1.33,1.59-2.53,2.68-3.6,1.09-1.07,2.29-1.95,3.6-2.64,1.31-.69,2.65-1.23,4.04-1.6,1.39-.37,2.75-.56,4.08-.56,3.36,0,6.21.56,8.56,1.68,2.35,1.12,4.28,2.65,5.8,4.6,1.52,1.95,2.63,4.25,3.32,6.92.69,2.67,1.04,5.52,1.04,8.56,0,2.88-.37,5.65-1.12,8.32-.75,2.67-1.88,5-3.4,7-1.52,2-3.44,3.6-5.76,4.8-2.32,1.2-5.05,1.8-8.2,1.8-2.93,0-5.75-.65-8.44-1.96-2.69-1.31-4.81-3.24-6.36-5.8v22.96ZM431.2,108.24c0,2.35.32,4.57.96,6.68.64,2.11,1.56,3.95,2.76,5.52,1.2,1.57,2.67,2.83,4.4,3.76,1.73.93,3.69,1.4,5.88,1.4,2.45,0,4.6-.49,6.44-1.48,1.84-.99,3.35-2.33,4.52-4.04,1.17-1.71,2.03-3.69,2.56-5.96.53-2.27.75-4.71.64-7.32,0-2.61-.36-4.92-1.08-6.92s-1.72-3.69-3-5.08c-1.28-1.39-2.77-2.44-4.48-3.16-1.71-.72-3.57-1.08-5.6-1.08-2.24,0-4.24.45-6,1.36-1.76.91-3.23,2.15-4.4,3.72-1.17,1.57-2.07,3.44-2.68,5.6-.61,2.16-.92,4.49-.92,7Z"/>
  <path d="M480.08,145.12h-4.8v-57.76h4.8v7.28h.16c.69-1.33,1.59-2.53,2.68-3.6,1.09-1.07,2.29-1.95,3.6-2.64,1.31-.69,2.65-1.23,4.04-1.6,1.39-.37,2.75-.56,4.08-.56,3.36,0,6.21.56,8.56,1.68,2.35,1.12,4.28,2.65,5.8,4.6,1.52,1.95,2.63,4.25,3.32,6.92.69,2.67,1.04,5.52,1.04,8.56,0,2.88-.37,5.65-1.12,8.32-.75,2.67-1.88,5-3.4,7-1.52,2-3.44,3.6-5.76,4.8-2.32,1.2-5.05,1.8-8.2,1.8-2.93,0-5.75-.65-8.44-1.96-2.69-1.31-4.81-3.24-6.36-5.8v22.96ZM480.08,108.24c0,2.35.32,4.57.96,6.68.64,2.11,1.56,3.95,2.76,5.52,1.2,1.57,2.67,2.83,4.4,3.76,1.73.93,3.69,1.4,5.88,1.4,2.45,0,4.6-.49,6.44-1.48,1.84-.99,3.35-2.33,4.52-4.04,1.17-1.71,2.03-3.69,2.56-5.96.53-2.27.75-4.71.64-7.32,0-2.61-.36-4.92-1.08-6.92s-1.72-3.69-3-5.08c-1.28-1.39-2.77-2.44-4.48-3.16-1.71-.72-3.57-1.08-5.6-1.08-2.24,0-4.24.45-6,1.36-1.76.91-3.23,2.15-4.4,3.72-1.17,1.57-2.07,3.44-2.68,5.6-.61,2.16-.92,4.49-.92,7Z"/>
  <path d="M526.4,115.84c.75,3.57,2.09,6.09,4.04,7.56,1.95,1.47,4.73,2.2,8.36,2.2,1.76,0,3.28-.21,4.56-.64,1.28-.43,2.33-1,3.16-1.72.83-.72,1.45-1.53,1.88-2.44.43-.91.64-1.87.64-2.88,0-2.03-.65-3.53-1.96-4.52-1.31-.99-2.95-1.76-4.92-2.32-1.97-.56-4.11-1.04-6.4-1.44-2.29-.4-4.43-1-6.4-1.8-1.97-.8-3.61-1.95-4.92-3.44-1.31-1.49-1.96-3.6-1.96-6.32,0-3.47,1.27-6.31,3.8-8.52,2.53-2.21,6.12-3.32,10.76-3.32s8.12,1,10.92,3,4.49,5.35,5.08,10.04h-4.88c-.43-3.2-1.64-5.45-3.64-6.76-2-1.31-4.52-1.96-7.56-1.96s-5.36.65-6.96,1.96c-1.6,1.31-2.4,3.03-2.4,5.16,0,1.87.65,3.29,1.96,4.28,1.31.99,2.95,1.79,4.92,2.4,1.97.61,4.11,1.16,6.4,1.64,2.29.48,4.43,1.16,6.4,2.04,1.97.88,3.61,2.07,4.92,3.56,1.31,1.49,1.96,3.57,1.96,6.24,0,1.97-.43,3.72-1.28,5.24-.85,1.52-2.03,2.79-3.52,3.8-1.49,1.01-3.27,1.77-5.32,2.28-2.05.51-4.31.76-6.76.76s-4.63-.36-6.52-1.08c-1.89-.72-3.51-1.72-4.84-3-1.33-1.28-2.37-2.77-3.12-4.48-.75-1.71-1.17-3.55-1.28-5.52h4.88Z"/>
</svg>